inDegrees=no
nColumns=32
nRows=15
DataType=double
version=3
OpenSimVersion=4.5
endheader
time	pelvis_tilt	pelvis_list	pelvis_rotation	pelvis_tz	pelvis_ty	pelvis_tx	hip_flexion_r	hip_adduction_r	hip_rotation_r	knee_angle_r	ankle_angle_r	subtalar_angle_r	mtp_angle_r	hip_flexion_l	hip_adduction_l	hip_rotation_l	knee_angle_l	ankle_angle_l	subtalar_angle_l	mtp_angle_l	lumbar_extension	lumbar_bending	lumbar_rotation	arm_flex_r	arm_add_r	arm_rot_r	elbow_flex_r	arm_flex_l	arm_add_l	arm_rot_l	elbow_flex_l
0	-0.1049186089380967	0.08448760914386035	0.008886180511250161	0	0.79586775	-0	0.6012310371331017	-0.02342666268627212	-0.1376002575931421	-0.1441704375121368	0.1194621059032308	0.1331665832080681	0	-0.3650064744336861	0.2035524761005662	-0.079993211523608	0.1041697057047146	0.2339768955746389	0.1399885767880795	0	0.03681337068672563	-0.04305446929885556	-0.07007285796824327	-0.2143159310223932	-0.08372502112314717	-0.5127039144880233	0.4503382013348562	0.009110638417630948	-0.1913127084255339	-0.3482376583330059	1.046994401154851
0.01000000000000001	-0.1032841062112326	0.08313748567080675	0.008607312156084554	-0.0003548699999999516	0.79477283	0.01495562	0.5995401916498339	-0.02228051037700812	-0.1467237772387844	-0.1733908079168666	0.07252311732753769	0.1068627277965908	0	-0.3703088033762679	0.199550345717688	-0.08614499046780616	0.07743071387984217	0.2254163737671294	0.1539243880604908	0	0.03854087995252418	-0.03859743752146798	-0.06299830721695367	-0.217018697811082	-0.08524494982889269	-0.5149986311515776	0.4477373425758621	0.008253410879801823	-0.1837758543383773	-0.3481944605613544	1.031122209211073
0.01999999999999991	-0.111650013815134	0.06986993502602215	0.007827027822709057	-6.59499999999813e-05	0.79434319	0.02974728	0.6023832488764627	-0.00667258030607136	-0.130411303476444	-0.1772771042879485	0.005527995826074431	0.04421790316024109	0	-0.3600939558783581	0.1827881515707227	-0.09848783536859901	0.04558346447496472	0.2146997852990416	0.1696805170052741	0	0.05188917308160838	-0.02082454955914452	-0.05701760021004824	-0.2183071630458232	-0.08830460433555617	-0.517593422971559	0.4424855997327213	0.004279307517650871	-0.1741040375883587	-0.3519318402046683	1.010597602861464
0.02999999999999992	-0.1185776203007676	0.05763160704210549	0.006862124559480988	0.0008818800000000016	0.79452337	0.044326	0.6045392930222936	0.008996214631870199	-0.1044694928818151	-0.1901149744810236	-0.04716687883411984	-0.03076815282000799	0	-0.344476824082539	0.1653599261676282	-0.1115253495860195	0.001584514091116796	0.2031220330520626	0.1757499794151641	0	0.06306406843064201	-0.005973256196328666	-0.05131915657642159	-0.2162530995353839	-0.08941802718348922	-0.5193538069100821	0.4330074773541611	-0.0002707380915632384	-0.1641864732436716	-0.3595751670556454	0.9877611033650008
0.03999999999999992	-0.1209503206534603	0.04788712868696521	0.005818086554040753	0.001310730000000038	0.79544411	0.05897587	0.6068209038339617	0.01776904073305329	-0.09981229191051015	-0.2233662861167261	-0.06946756225022128	-0.07776647543441893	0	-0.3316708537958014	0.1503507054657152	-0.1206545331741504	-0.04547415712190621	0.1829161302815862	0.1819862103040102	0	0.06869779316120961	0.007207219336386073	-0.0477921941767939	-0.2117324644693951	-0.09138939350331056	-0.5197824885723047	0.424370974906594	-0.007746537070826611	-0.1524712560722788	-0.3665681393723675	0.9690471230489607
0.04999999999999993	-0.1174589464759356	0.03636161840147854	0.004289779523172528	0.001464750000000015	0.79740968	0.07371265	0.6020150255940622	0.02542314150150285	-0.115926216493545	-0.2561554069902983	-0.06829889554267242	-0.08730187393397604	0	-0.3221573432958606	0.1337775334438007	-0.1279016285715556	-0.09563118289976179	0.1518833485459957	0.1773908494896961	0	0.06666290156900466	0.02314468764138576	-0.04389645976324892	-0.2086638642776505	-0.09440609318815445	-0.5195021110272827	0.423084830959758	-0.01910610902413934	-0.1429838394663858	-0.3674113587230872	0.958381864714174
0.05999999999999994	-0.114172510512849	0.02592066172291647	-0.002477502566637954	0.002209320000000015	0.79966486	0.08855607	0.5951176906880982	0.03637559847709416	-0.1153256113478877	-0.2831828546166356	-0.0663844817598046	-0.08923406040461691	0	-0.3083939686336843	0.1185274504983283	-0.1417636061334221	-0.1508956817321236	0.1105727436442932	0.1729089286190434	0	0.06538259225785807	0.03785019347724961	-0.036603836230575	-0.2047950006042034	-0.09670990196991404	-0.5182434244257061	0.4204831779014213	-0.03117269012095714	-0.1332236160301672	-0.3717682199460505	0.9424113250378429
0.06999999999999995	-0.109420449477657	0.01647159707900918	-0.009795830644543327	0.003399170000000007	0.80226666	0.10359948	0.5856155412343903	0.04897114855308572	-0.1042619367563716	-0.3098154314480859	-0.05118683182118777	-0.0888987826553088	0	-0.293026226062018	0.102765105563414	-0.1557439037540716	-0.2094845477625356	0.05955548417350489	0.1734265939733166	0	0.0631584914413066	0.05061120896937771	-0.03031664905795352	-0.1997944143056161	-0.09813629952824272	-0.5164418236642324	0.4187625134678831	-0.0449200108956078	-0.124283484935816	-0.3775947077403874	0.9239528979252747
0.07999999999999996	-0.1066241965205652	0.007803736947592492	-0.01448118581972358	0.005126630000000021	0.80484795	0.11853782	0.5761763337640302	0.06219581948765238	-0.0924299804454323	-0.3359926785812284	-0.0234584199992097	-0.08567987540651416	0	-0.2712787483142811	0.08340671582815007	-0.1701472801809787	-0.2734565301868797	-0.001582651126673218	0.1961146291313545	0	0.06371664354730418	0.06022956942600034	-0.02803744400812638	-0.1941013667064378	-0.0982267398720872	-0.5114831549382902	0.4145206479750766	-0.05526938156547722	-0.1152044441334961	-0.3959634563453295	0.8943072246412214
0.08999999999999997	-0.09770106741427753	0.001356503094175829	-0.01937905488174627	0.006463270000000021	0.80767051	0.13239714	0.5616349995317282	0.07164068653717806	-0.08981818946760239	-0.3617889716513406	-0.002750413055537855	-0.0885819401207578	0	-0.2481880508625094	0.06628415307855004	-0.1790855624480533	-0.3506151418258153	-0.05424561575762035	0.1939525423065874	0	0.05284048363996381	0.06783581256822852	-0.02226375224912925	-0.1873644919613815	-0.09728092710087556	-0.5090905930224741	0.4173405019219648	-0.06620155641889697	-0.1086995983461218	-0.4007559864816426	0.8820129541733737
0.09999999999999998	-0.09899111360961192	-0.01202775512085471	-0.01162212796910155	0.007379090000000033	0.81001468	0.14628976	0.5490528696414212	0.083495587120997	-0.09453977022449273	-0.3730172021679201	0.02418821144903984	-0.0941000364393149	0	-0.2067567691839351	0.03648825232446046	-0.1803931933178436	-0.4409319699408503	-0.08443911857234336	0.1965706018089587	0	0.05651200310942086	0.08101820778858754	-0.03219561886890476	-0.1836998316358848	-0.09633070510437458	-0.5050948583986398	0.4235566273159596	-0.07796305012274181	-0.1015880314303254	-0.4147717265034124	0.8552789548628266
0.11	-0.1064776569786915	-0.02497246722289505	-0.00381862839351195	0.008468500000000045	0.81153166	0.1589248	0.5406671319119905	0.09581365340786636	-0.09972241984587013	-0.3750887280465914	0.03635016204857559	-0.09425918987221163	0	-0.1495361665869948	0.006066158327083071	-0.1812614419117673	-0.5424614651224589	-0.1140334894738307	0.1895114788955921	0	0.06392376211870419	0.09264425731022645	-0.0384385080143143	-0.1799211105531117	-0.09328214111790996	-0.5016787107929456	0.4311162495722743	-0.08684382728162168	-0.09520573917236762	-0.4274216112970124	0.835464906434691
0.12	-0.1075319371579602	-0.03416709589472213	-0.003687543563405519	0.009373520000000024	0.81358439	0.17141973	0.5217099317616374	0.1056794734526208	-0.1094839023626111	-0.3694657048023324	0.05384128143846321	-0.09245649496382982	0	-0.102919540324145	-0.01557458887170299	-0.182055752948056	-0.6294272732909695	-0.1626565012152784	0.1613206813582063	0	0.06245530893218652	0.1022858329148286	-0.03609428910078451	-0.1733685987766679	-0.09252890727823168	-0.5008618509753858	0.4390003908447891	-0.0978205823819934	-0.08915778567658041	-0.4297676640279873	0.8213468040740222
0.13	-0.1176775762884073	-0.04484385657385467	-0.005299781753000853	0.01011245000000005	0.8148347	0.18334028	0.5072937203579441	0.1175485845072095	-0.1185738512982231	-0.3514037702445923	0.05665012829189076	-0.0805966463715815	0	-0.04242635741512103	-0.03694932380694144	-0.1788266629248064	-0.7179146432698068	-0.2091641585444116	0.1207405918689078	0	0.07104356716310291	0.1146376529967669	-0.03027620192520318	-0.1714294622304127	-0.09233394911386202	-0.5020306888997342	0.4504873812582754	-0.1058895414559238	-0.08184648223398824	-0.433269025240015	0.8010439955620201
0.14	-0.1190046621360998	-0.0533777006411161	-0.006379232919731117	0.01096533000000005	0.81629753	0.1950204	0.4852131658956186	0.1281103894977818	-0.1260073911439067	-0.3368932768528379	0.07223101937298977	-0.07643609699035579	0	0.006393622586395854	-0.05667191157175198	-0.1757711176213338	-0.796706748000125	-0.238823698818438	0.08895373033255057	0	0.06805064252786262	0.1236941870802507	-0.02507545777733864	-0.1646596300840251	-0.09181919880850546	-0.5022869927693177	0.4597661130342976	-0.1151159210338349	-0.07630272625930122	-0.4344759022663449	0.7871010511289559
